# xmcd CD database file
#
# Track frame offsets:
#	187
#	27402
#	72327
#	92352
#
# Disc length: 2020 seconds
#
# Revision: 6
# Processed by: cddbd v1.5.2PL0 Copyright (c) Steve Scherf et al.
# Submitted via: CDex 1.51
#
DISCID=2a07e204
DTITLE=Miles Davis  - Cookin' with the Miles Davis Quintet
DYEAR=1956
DGENRE=Jazz
TTITLE0=My Funny Valentine
TTITLE1=Blues by Five
TTITLE2=Airegin
TTITLE3=Tune Up/When Lights Are Low
EXTD=The category is Jazz and it was published in 1956 YEAR: 1956
EXTT0=
EXTT1=
EXTT2=
EXTT3=
PLAYORDER=
